<svg width="175" height="206" fill="none" xmlns="http://www.w3.org/2000/svg"><path d="M111.79 129.267c-1.231 2.444-2.215 8.213 3.69 11.733m25.835-9.533c1.371-2.336 2.15-7.645-2.952-13.265m0 0c-1.307-1.44-3-2.9-5.167-4.335-3.691-3.667-7.382-5.134-11.073-14.667-3.543-3.52-5.905-1.467-6.643 0v22c.492 1.467-2.952 6.6-20.668 15.4-5.314 1.76-15.009.733-19.191 0-1.23.489-6.053-2.787-15.501-19.8h-3.691L52 105.8c7.873-7.578 31.15-21.12 61.266-14.667.984.734 3.69 1.467 6.643-1.466C123.6 86 133.934 75 149.435 75h19.191c1.231.489 2.923 3.407-1.476 11 1.23 4.644 1.772 16.72-5.905 27.867-2.953 4.106-16.485 4.601-22.882 4.335z" stroke="#CCC" stroke-linecap="round" stroke-linejoin="round"/><path d="M94.503 83.102C82.503 82.012 64.501 89.913 57 94c12.001-4.904 29.002-5.676 36.003-5.449 3.75-1.362 6-3.406 1.5-5.449z" stroke="#CCC" stroke-linecap="round" stroke-linejoin="round"/><path d="M70.657 183.533c5.278-3.514 4.154-10.248 2.932-13.176-10.994-17.325-34.3-52.413-39.578-54.17-5.277-1.757-8.062 5.124-8.795 8.784l-2.199-1.464c-5.863-5.856-3.42-10.736-1.465-12.444-24.187-57.098 30.05-88.575 33.714-91.503 2.932-2.343 3.176-4.88 2.932-5.856 2.931 1.756 2.199 3.66 1.466 4.392 48.08-21.668 75.735 1.708 83.553 16.104h-13.193c6.108 7.32 18.47 22.84 19.057 26.353.586 3.514.244 11.225 0 14.64h9.528m-87.952 108.34c15.392 8.052 50.133 23.571 65.964 21.229 17.478-2.586 26.38-.033 25.191-62.954m-91.155 41.725c-5.276 3.514-13.925-1.464-17.59-4.392l-27.85-18.301v-19.032c-10.555-15.226-13.682-23.425-13.926-25.621H5.427C-2.146 90.078-5.42 32.59 42.074 11.507 111.17-19.29 146.017 24.714 155.686 52.502m.723 2.196a67.47 67.47 0 00-.723-2.196m6.125 89.307c-.158-8.318-.491-17.78-1.005-28.549 2.012-1.005 5.582-5.717 6.452-16.837m-5.447 45.386c1.864.244 5.592.146 5.592-2.196 0-2.928 6.596-32.941 6.596-37.333 0-3.514-4.494-5.369-6.741-5.857m0 0c.186-2.381-.515-6.78-.618-9.775.618-2.196 5.863-8.785 1.496-11.453h-9.528m0 0c.006-3.172-.569-12.152-2.922-22.693M119.031 160.84c2.931-3.66 9.674-10.833 13.192-10.248 4.398.732 7.33-5.124 10.994-3.66 2.932 1.171 5.375 2.684 8.062 3.66.978 4.148.733 13.177-8.062 16.105-8.795 2.928-18.323 1.22-21.988 0" stroke="#CCC" stroke-linecap="round" stroke-linejoin="round"/><path d="M145 72.863c-5.878-9.468-17.143-2.959-22.042 1.48-.979 1.479-2.057 4.882 1.47 6.657 8.816-8.877 17.388-9.123 20.572-8.137zM112.88 103.282c0-5.73-2.734-6.923-3.728-7.162-37.278-1.432-47.468 10.265-44.734 17.188 2.982 5.968 9.842 18.19 13.42 19.336 4.474 1.432 14.166 2.148 17.894 0 15.508-8.021 17.894-11.936 17.148-12.891v-16.471zM123.897 90.568c11.206-11.847 30.228-12.341 38.338-11.107 3.687 11.848 3.687 18.512 0 28.138-3.686 9.626-22.118 9.626-26.542 6.664-10.322-8.145-14.745-19.252-11.796-23.695z" stroke="#CCC" stroke-linecap="round" stroke-linejoin="round"/></svg>